<?xml version="1.0" standalone="no"?>
<!DOCTYPE svg PUBLIC "-//W3C//DTD SVG 20010904//EN"
 "http://www.w3.org/TR/2001/REC-SVG-20010904/DTD/svg10.dtd">
<svg version="1.0" xmlns="http://www.w3.org/2000/svg"
 width="100.000000pt" height="100.000000pt" viewBox="0 0 100.000000 100.000000"
 preserveAspectRatio="xMidYMid meet">

<g transform="translate(0.000000,100.000000) scale(0.100000,-0.100000)"
fill="#000000" stroke="none">
<path d="M0 500 l0 -500 500 0 500 0 0 500 0 500 -500 0 -500 0 0 -500z m439
-197 c-1 -37 -1 -37 -8 -8 -7 28 -5 45 5 45 2 0 3 -17 3 -37z m59 3 c4 -36
-13 -56 -30 -37 -11 11 -10 13 5 8 22 -8 22 2 0 18 -10 7 -14 19 -10 29 10 26
31 14 35 -18z m44 4 c-2 -14 -8 -29 -14 -35 -6 -7 -7 0 -2 19 4 19 2 31 -7 38
-11 7 -9 8 6 6 15 -3 19 -10 17 -28z m55 -8 c3 -34 -12 -51 -30 -32 -9 9 -9
11 2 8 10 -2 15 5 15 22 0 15 -6 24 -13 22 -7 -1 -9 2 -6 8 12 20 30 4 32 -28z"/>
<path d="M475 321 c-3 -5 -1 -12 5 -16 5 -3 10 1 10 9 0 18 -6 21 -15 7z"/>
</g>
</svg>
